<svg id="Vrstva_1" data-name="Vrstva 1" xmlns="http://www.w3.org/2000/svg" viewBox="0 0 1520 531"><defs><style>.cls-1{fill:#fff;}.cls-2{fill:#fefefe;}.cls-3{fill:#758bfd;}.cls-4{fill:#d6af85;}.cls-5{fill:#cc9f69;}.cls-6{fill:#27187e;}.cls-7{fill:#fabd92;}.cls-8{fill:#6b4925;}.cls-9{fill:#ecdedf;}.cls-10{fill:#f9a195;}.cls-11{fill:#f7a196;}.cls-12{fill:#5666a8;}.cls-13{fill:#f7bf98;}.cls-14{fill:#ffd5d2;}.cls-15{fill:#c18e8f;}.cls-16{fill:#f2c5a2;}.cls-17{fill:#fbdfe0;}.cls-18{fill:#223933;}.cls-19{fill:#477b64;}.cls-20{fill:#8cbe98;}.cls-21{fill:#4c5056;}.cls-22{fill:#36393f;}</style></defs><path class="cls-1" d="M260,486c1.43,2.37-1.19,7.49-5,10-1.52,1-4.35,1.33-10,2-5,.59-7.6.5-9-1a3.73,3.73,0,0,1-1-2,4.27,4.27,0,0,1,1-3c2.91-3.88,12.24-2.37,13-5,.32-1.1-1.25-1.55-2-4-1-3.3.1-8.12,3-9a4.51,4.51,0,0,1,5,2c1.13,2.4-2.08,4.8-1,7S258.74,483.92,260,486Z"/><path class="cls-2" d="M239.86,444.29h0c0-.06.07-.12.09-.17Z"/><path class="cls-3" d="M241.72,360.93c-.84-3.48-2.81-6.4-4.18-9.6-2.75-6.38-5.3-12.87-8.93-18.85-3.27,3.43-6.63,2.6-10.21.42s-7.26-2.89-11.35-.62c-5,2.76-10.4.27-15.61.74a.81.81,0,0,1-.91-.7c-.13-1,.8-1.14,1.39-1.49q8.76-5.18,17.53-10.32c2.61-3.66,5.07-7.44,7.88-10.94,2.2-2.75,3.54-5.88,5-9,.49-2.57-.15-4.89-1-7.35-1.73-4.7-4.05-9.12-5.88-13.75-2.37-6-5.4-11.71-7.25-17.9a1.89,1.89,0,0,1-1.69-1.24c-1.1-4-3.91-7.38-4.7-11.54q-1.22-2-2.42-4c-2.45-.16-2.35-2.63-3.53-3.94-1.7-1.9-3.86-3.41-5.61-6.41a11.76,11.76,0,0,1,6.56,4.85,41.19,41.19,0,0,0,12.59-2.73c1.4-.53,2.78-1.08,3.3-2.69a60.52,60.52,0,0,1-.13-13.59c.79-8.33-.4-9.22-8.66-8.63-5.17.36-7.41-1.27-8.64-5.74-3.26-11.86-6.78-23.6-14.65-33.5-5.27-6.63-14.25-10-21.86-7.18a140.72,140.72,0,0,0-28,13.68c-1,.64-2.48,1-2.53,2.62,1.93,1.42,5,.58,6.32,3.21a5.21,5.21,0,0,1,4,1.79,11.57,11.57,0,0,1,1,1.27l.32.45c.43.6.84,1.21,1.29,1.78a16.2,16.2,0,0,1,2,2c.18.21.36.44.52.66s.31.41.45.62l.31.45.39.59c1.57,2.48,2.8,5.2,4.45,7.64.18.27.36.53.55.79,1,4,2.88,7.57,4.59,11.25.62,1.34,2,2.62,1.22,4.39,0,1.8,2.12,3.11,1.78,5h0a3.2,3.2,0,0,1-.35.9,1.15,1.15,0,0,0,1.16,1.37c1.44-.65,1.88.72,2.19,1.42,1.25,2.88,2.11,1.37,3-.15a26.55,26.55,0,0,0,2.68-6.66,1.47,1.47,0,0,1,1-1.11c.19-3.5,1.78-6.5,3.45-9.44.79-1.38,2-2.9,3.76-2.08s1.22,2.7.6,4.19a8.17,8.17,0,0,1-2.42,3.63c-.14.72-.46,1.25-1.28,1.31h0a1.25,1.25,0,0,1-1.26,1.28l0,0a1.16,1.16,0,0,1-.73,1.19l-1.23.76c-2.14,3.83-2.79,8.37-5.72,11.85a10,10,0,0,1-2.58,2.69c.38,2-1.06,4.23.6,6.13l5.67-2.71a2.74,2.74,0,0,1,1.73-1.1,4.25,4.25,0,0,1,2.86-2.11,3.88,3.88,0,0,1-2.47,2.56,2.78,2.78,0,0,1-1.71,1.23,45.13,45.13,0,0,1-4,3.94c-1.33,1-3.06,2-2.85-1.18-2,.89-2.81,2.47-2.05,4.48,1.37,3.63,1.06,4.48-2.55,5.81-.2.07-.27.52-.4.79,1.82,2.89.21,5.84-.18,8.62-2.13,15-4.15,30-6.79,45-3.42,19.42-6.47,38.92-9.7,58.37-.25,1.51-.27,3.33-2.55,3.38l3.51,2.5,12,1.41q18.19,1.56,36.41,3.13c1.36.11,2.71.39,4.07.59,6.87.61,13.48,1.74,20.51-1.09,9.37-3.79,19-7.07,28.49-10.61C241.61,363.25,242.13,362.64,241.72,360.93Zm-49.46-53q-5.64-3-11.21-6.08c-1.38-.77-1.18-1.68.11-2.33,4.37-2.17,13,2.51,13.36,7.35C194.33,308.28,193.43,308.58,192.26,308Zm10.92-33.43-1,.31c-1.14-3.33-2.6-6.55-2.41-10.19Q201.5,269.59,203.18,274.54Zm2.66,15.13c3.06-.43,4.16,2.2,5.68,3.93,1.14,1.29,3.22,3.13,2.53,4.41-1,1.78-3.31.17-4.89-.19-7.67-1.79-15.46-2.22-23.35-2.84C192.42,292.9,199,290.65,205.84,289.67Zm-8.07-27.76-2.43-5.43A5.47,5.47,0,0,1,197.77,261.91Zm-3.28-8.9c.69.46,1.11,1,.57,1.82C194.35,254.37,194,253.85,194.49,253Zm-1.55,22.09c1.24.18,1.41,1,.71,1.78-4.48,5.16-9,10.26-13.54,15.38-.88,2.95-1.25,6.09-4.13,8.12a5.26,5.26,0,0,0-2.22,4c2.44-.21,3.77.93,4.76,3.18a77.75,77.75,0,0,1,3.94,10.56c-3.58-3.31-5.48-8-9.57-10.76-1.5,1.3-2.75,2.91-4.82,3.9a7.12,7.12,0,0,1,.34-4.07,34,34,0,0,1,.4-13.39c.54.15.8.14.9.26,1,1.15.7,3.26,2.57,3.65.87.18,4.05-5.51,4-7.24-.05-2.19-.3-4.38-.48-6.89,2,1,1.47,3,2.24,4.33a.77.77,0,0,1,.1.25.57.57,0,0,1,0,.18.16.16,0,0,1,0,.1,3.37,3.37,0,0,1,.95,1.51c.07.19.12.38.18.58s.09.3.14.45c2.07-2.9,2.18-6.53,3.53-9.7C184.21,278.45,190,274.67,192.94,275.1Zm-18.62-8q0-9.09,0-18.17a3.45,3.45,0,0,1,.93-2.63c.58-.57,1.09-1.49,2.11-.95a1.59,1.59,0,0,1,.6,2.24C175.09,253.83,175.52,260.62,174.32,267.09ZM184.92,237c.06,0,.14,0,.17.06a.59.59,0,0,1,.06.14l.07.06s0,.06,0,.09l-.06-.06,0-.09Zm.33.36.2.2s-.13,0-.15-.07A.25.25,0,0,1,185.25,237.36Zm1.88,2.46,0,.08.22.2s-.12,0-.15-.06a.54.54,0,0,1-.07-.13h0l-.06-.05a.34.34,0,0,1,0-.12l-.42-.57c.23,0,.35,0,.4,0s0,.33,0,.49v0Zm4.18,7a3.28,3.28,0,0,1-1.62-3.08l0,0L189,243v0a1.18,1.18,0,0,1-.19-.11,1.85,1.85,0,0,1-.27-.19l-.08-.05a1.24,1.24,0,0,1-.34-.48,1.19,1.19,0,0,1-.08-.51.54.54,0,0,1,.43-.21c.67.34.5,1,.53,1.55l0,0,.64.65v0C190.74,244.31,191.15,245.24,191.31,246.78Zm4.5-16.13a1.27,1.27,0,0,1-.05,1.75c-.56.53-1.19.2-1.76-.08a90.86,90.86,0,0,0-10.81-4.8c2-.86,4.17-.82,6.24-1.13C193,225.84,194.12,228.63,195.81,230.65Zm-11.6-20.09c1,2.21,1.59,4,.08,5.62-.45.48-1.73.93-1.89.2C182,214.36,183.24,212.7,184.21,210.56Zm-24.49,60.67c1.78-8.74,4-17.41,7.91-25.44,1-2.1,2-4.94,4.76-6,.7-2.52,2.55-4.27,4.14-6.19-1.83-.49-3.38.86-5.9.92a11.49,11.49,0,0,1,7.44-2.43c2.56-2.61,5.42-2.64,8.59-1.2a2,2,0,0,1,1.23,1.65c.21,1-.68.89-1.2,1.08a12.17,12.17,0,0,1-3,.91c-4.61.32-7.27,3.55-10.11,6.55-3.19,3.68-4.94,8.17-6.66,12.59-1.49,3.81-2.24,7.91-3.53,11.81-1.11,3.37-.83,7.05-2.49,10.28-.41.8-.79,1.24-1.65,1.05s-.79-1.07-.91-1.79C158.11,273.51,159.44,272.61,159.72,271.23Zm-8.37,22.47H166V294H151.35Zm8.33,54.72H142.89c0-.29,0-.58,0-.87a53.08,53.08,0,0,1,10.24.09l2.1.14c.35,0,.69.05,1,.06,1.12.07,2.25.12,3.37.11l1.09,0c2.1-.05,4.2,0,6.3,0l1.12,0h.64c1,0,2.08-.09,3.12-.19.63-.05,1.24-.12,1.87-.21C169.23,349.93,164.38,348.17,159.68,348.42Zm15-3.47a54.46,54.46,0,0,1-3.54-10.49c-1.49-3.15-1.6-6.65-2.52-10.06,1.18,4.35,5.19,6.14,7.79,9.17,4,.36,7.88-1.72,12.74-.72C181.64,334.29,175.27,336.29,174.65,345Z"/><path class="cls-4" d="M166.13,387.72c-1.43,1.64-3.32,3-3.31,5.54-.41-.13-.83-.28-1.15.15-4.37,5.82-9.88,10.94-11.36,18.54a73.37,73.37,0,0,1-17.53,35.56c-4.52,5.06-8.58,10.54-12.86,15.83-.79,1-1.55,2.07-3.1,1.73-3.74-3.29-7.33-6.79-12.08-8.68-.87-1.53.24-2.63.85-3.8,6.52-12.54,13.46-25,16.92-38.74a146.39,146.39,0,0,1,11.76-32.11c1.87-3.62,3-7.59,4.51-11.41l12,1.41a1.32,1.32,0,0,0,.91,1.12,87.07,87.07,0,0,1,13.84,8.31C169.09,383.83,169.14,384.25,166.13,387.72Z"/><path class="cls-5" d="M240,444a1.64,1.64,0,0,1-.16.33L232,453.14a4.8,4.8,0,0,1-.7.62c-.87.62-1.7.62-3-.38-16.3-12.68-33.33-24.31-51.59-34-5.19-2.75-8.18-6.34-8.85-12,1,0,1.45-.77,1.74-1.58.95-2.65,1.68-5.4,2.83-8,1.8-4,2.78-8.42,5.7-11.89,1.46-1.74,2.78-2,4.83-.47,3.53,2.65,6.74,5.66,10.17,8.42,2.19,2.76,3.31,6.21,5.7,8.84l-12.07,3.77.12.84c3.18-.77,6.38-.53,9.56-.64,3-.09,5.92.42,8.85-.33l.11,0-.15.53.43-.29a30.7,30.7,0,0,1,12.86,10.89,201.29,201.29,0,0,0,20.72,24.91C239.72,442.86,240.25,443.29,240,444Z"/><path class="cls-6" d="M154.31,261.1c-2.13,15-4.15,30-6.79,45-3.42,19.42-6.47,38.92-9.7,58.37-.25,1.51-.27,3.33-2.55,3.38l-2.48.06a2.77,2.77,0,0,0-2.65.37c-.83.45-1.6,1.11-2.58.23s0-1.54.13-2.28c6.76-30.17,15.17-60,20.29-90.49,1.24-7.43,2-15,2.92-22.43l3.59-.81C156.31,255.37,154.7,258.32,154.31,261.1Z"/><path class="cls-7" d="M234.44,317.21c-1.66-4.92-5.83-8.14-8.44-12.45-.91-1.49-1.57-3.53-3.63-4.17.49-2.57-.15-4.89-1-7.35-1.73-4.7-4.05-9.12-5.88-13.75-2.37-6-5.4-11.71-7.25-17.9a4.38,4.38,0,0,0-.8-2.86c-1-1.45-.34-2.31,1.42-2.26a114.3,114.3,0,0,1,14.37,16.09,21.38,21.38,0,0,0,2.16,2.29c1,1,2.59,2.45,1.81,3.8-1.59,2.76,0,4.33,1.51,6.07,3.46,4,3.31,9.58,6.19,13.84,1.13,1.66,2,3.49,3.07,5.2C241.8,309.94,240.77,314,234.44,317.21Z"/><path class="cls-8" d="M193.14,393.88c-3.43-2.76-6.64-5.77-10.17-8.42-2.05-1.53-3.37-1.27-4.83.47-2.92,3.47-3.9,7.88-5.7,11.89-1.15,2.57-1.88,5.32-2.83,8-.29.81-.69,1.58-1.74,1.58q-2.53-7-5.05-14.11c0-2.51,1.88-3.9,3.31-5.54,3-3.47,3-3.89-.63-6.55a87.07,87.07,0,0,0-13.84-8.31,1.32,1.32,0,0,1-.91-1.12q18.19,1.56,36.41,3.13c1.36.11,2.71.39,4.07.59Q192.19,384.67,193.14,393.88Z"/><path class="cls-9" d="M276,466.16a2.76,2.76,0,0,0-2.09,1.31c-2.15,2.87-4.39,5.68-6.37,8.66-2.62,3.94-5.57,7.73-6.92,12.39l-1.17.7c-.44-2.36-2.53-2.68-4.25-3.14-3.71-1-4-1.49-2.6-5.14.82-2.11,1.74-4.3-1.55-5.22,1.26-2.89.33-5.93.58-8.89,5.95-4.73,6.62-9.4,1.91-13.36,4.58-3.65,5.2-3.61,9.43.62,2.68,2.68,5.16,5.43,9.15,6.58C274.18,461.26,275.18,464,276,466.16Z"/><path class="cls-10" d="M234.44,317.21c-2.45,3.31-6.06,5.39-8.85,8.34-1.68-.37-2.77,1.14-4.39,1.33-5.54.66-8.36-3.3-11.75-6.37,2.61-3.66,5.07-7.44,7.88-10.94,2.2-2.75,3.54-5.88,5-9,2.06.64,2.72,2.68,3.63,4.17C228.61,309.07,232.78,312.29,234.44,317.21Z"/><path class="cls-9" d="M160.27,240.77l-.78.63c-2,.89-2.81,2.47-2.05,4.48,1.37,3.63,1.06,4.48-2.55,5.81-.2.07-.27.52-.4.79l-3.59.81c-8-1.86-9.89-5-7.77-12.91.46-1.72,2-3.08,1.8-5,2.17.51,3.33-.86,4.29-2.41a27.72,27.72,0,0,0,3.35-7.76c.2-2,1-3,3.13-2l1.39,1.2a1.15,1.15,0,0,0,1.16,1.37,21.44,21.44,0,0,1,1.42,8.86C160.05,236.67,158.61,238.87,160.27,240.77Z"/><path class="cls-11" d="M251.62,466.83c-1.3,1.52-.06,3.46-1,5.59-1.95-4.1-3-8.59-7.72-10.06A43.32,43.32,0,0,0,232,453.15h0l7.88-8.85a63,63,0,0,0,13.66,9.18C258.24,457.43,257.57,462.1,251.62,466.83Z"/><path class="cls-12" d="M228.61,332.48c-3.27,3.43-6.63,2.6-10.21.42s-7.26-2.89-11.35-.62c-5,2.76-10.4.27-15.61.74a.81.81,0,0,1-.91-.7c-.13-1,.8-1.14,1.39-1.49q8.76-5.18,17.53-10.32c3.39,3.07,6.21,7,11.75,6.37,1.62-.19,2.71-1.7,4.39-1.33C226.73,327.8,228.29,329.87,228.61,332.48Z"/><rect class="cls-13" x="67.49" y="468.78" width="0.01" height="0.01"/><path class="cls-9" d="M143.76,198.87c-1,.93-1.36,2.16-2.7,3-1.67,1.1-4.05,2.58-3.77,5.42a1.8,1.8,0,0,1-.58,1.82c-2.49,1.12-3.74-.59-4.67-2.31A18.26,18.26,0,0,1,129.91,195c.23-1.45.21-2.93.31-4.4,2.47-1.18,2.42-4.25,4.36-5.82a5.21,5.21,0,0,1,4,1.79,12.87,12.87,0,0,1,1,1.27l.32.45c.42.6.83,1.21,1.28,1.78A10.88,10.88,0,0,0,143.76,198.87Z"/><path class="cls-14" d="M116.82,465.07c-1.48,3.14-3,6.27-4.44,9.41-.9,1.94-2.8,1.74-4.33,1.84-3.77.25-6.93-1.43-9.77-3.77,1.18-.17,2.85,1,3.44-.48a9.38,9.38,0,0,0,0-6.44,14,14,0,0,0-1-1.91c4.21-.86,3.46-4.46,4-7.33C109.49,458.28,113.08,461.78,116.82,465.07Z"/><path class="cls-13" d="M250.79,487.72c1.4,1.88.38,3.58-2.06,4-4,.69-8.12,1.28-12.15,2.1-1.34.27-1.46-.33-1.52-1.26a3.27,3.27,0,0,1,2-3.32c6.13-3,8.71-8.45,10.47-14.58a2.48,2.48,0,0,0-1.14-3.22c-.9-.57-1.81-1.11-2.68-1.71-2.09-1.45-3.19-3.12-1.28-5.55.35-.45.3-1.21.43-1.82,4.71,1.47,5.77,6,7.72,10.06,1-2.13-.28-4.07,1-5.59-.25,3,.68,6-.58,8.89C248.58,479.67,247.66,483.56,250.79,487.72Z"/><path class="cls-15" d="M152.57,225.17a27.72,27.72,0,0,1-3.35,7.76c-1,1.55-2.12,2.92-4.29,2.41-5.57-2.89-8-7.74-8.23-13.76-.17-4.13,0-8.28,0-12.42a1.8,1.8,0,0,0,.58-1.82c3.1,1.85,4.28,4.85,3,7.83a2.83,2.83,0,0,0-.2,2.7c1.72,3.19,4.68,5.17,7.32,7.44C149,226.71,150.82,225,152.57,225.17Z"/><rect class="cls-13" x="75.18" y="485.38" width="0.01" height="0.01"/><path class="cls-11" d="M277.38,472.69c-2.15,2.67-5.09,4.5-7.45,6.93-2.73,2.8-4.67,6.26-6.81,9.54a4,4,0,0,1-2.51-.64c1.35-4.66,4.3-8.45,6.92-12.39,2-3,4.22-5.79,6.37-8.66a2.76,2.76,0,0,1,2.09-1.31C279.38,468.13,279.73,469.78,277.38,472.69Z"/><path class="cls-12" d="M212.7,233.91c-.52,1.61-1.9,2.16-3.3,2.69a41.19,41.19,0,0,1-12.59,2.73c1.2.69.88,2.25,1.79,3.11.26.79.52,1.59.79,2.39q1.2,2,2.42,4a2.4,2.4,0,0,0,2.49.06c2.86-.91,5.6-2,6.74-5.13C212.87,240.68,215,237.66,212.7,233.91Z"/><path class="cls-8" d="M205.3,406.36c-2.93.75-5.9.24-8.85.33-3.18.11-6.38-.13-9.56.64l-.12-.84,12.07-3.77A20.63,20.63,0,0,1,205.3,406.36Z"/><path class="cls-16" d="M260.61,488.52l-1.17.7c-2.08,4.38-5.21,7.36-10.28,7.8-4.1-.28-8.23.35-12.32-.45a1,1,0,0,0-1.31.56c-.28.69.31.91.77,1.14a5.38,5.38,0,0,0,2,.88c5.33.09,10.72,1.06,15.91-1,3.76-.43,8.33-5,8.9-9A4,4,0,0,1,260.61,488.52Z"/><path class="cls-6" d="M134.58,184.78c-1.94,1.57-1.89,4.64-4.36,5.82-.71-2.17-1.43-4.33-2.11-6.5-.27-.85-.89-1.75.15-2.53C130.19,183,133.26,182.15,134.58,184.78Z"/><path class="cls-16" d="M207.4,258.73a4.38,4.38,0,0,1,.8,2.86,1.89,1.89,0,0,1-1.69-1.24c-1.1-4-3.91-7.38-4.7-11.54a2.4,2.4,0,0,0,2.49.06c.49,3.14,3.53,4.76,4.52,7.6C207.06,256.42,206.38,257.28,207.4,258.73Z"/><path class="cls-17" d="M94.7,486.19c-3.48.38-11.55-4.84-12.79-8.06-.2-.54-.34-1.1.2-1.39a1.15,1.15,0,0,1,1,.42c2.23,4.61,6.75,6.09,10.91,8.07C94.46,485.42,94.78,485.68,94.7,486.19Z"/><path class="cls-16" d="M101.71,465.63a14,14,0,0,0-1-1.91c-3.74-4.48-5.4-4.54-8.74.21-2.7,3.84-6.14,4.69-10.53,3.93-2.72-.47-5.37-1.14-8.06-1.72a9.44,9.44,0,0,0-7.73-2.5c-1,.08-2.06.05-2.29,1.19A1.81,1.81,0,0,0,65,467.27a1.26,1.26,0,0,0,.57.2c.19,1.08,1,1.29,1.9,1.32a3,3,0,0,0,2.64,2.44,7.17,7.17,0,0,0,.55,1.11c1.92,2.61,4,.1,6,.13,7.21.1,14.41.06,21.61.08,1.18-.17,2.85,1,3.44-.48A9.38,9.38,0,0,0,101.71,465.63Z"/><path class="cls-16" d="M102.56,493.15a45.57,45.57,0,0,1-5.89-2.32,71.92,71.92,0,0,0-20.86-8c-.12-.18-.19-.41-.36-.53A67.28,67.28,0,0,1,61.5,469a1.32,1.32,0,0,0-2.17-.22c-.95.81-.72,1.65.07,2.45,1.79,1.81,3.54,3.67,5.39,5.42,3.29,3.1,6.12,6.77,10.39,8.69h0c.11.77.5,1.2,1.33,1.11A9.24,9.24,0,0,0,80,488a23.73,23.73,0,0,1,10.65,4.58c3.26,2.51,6.74,4.74,10.08,7.16,1.2.87,2.14,1,3.36-.06C106.72,497.21,106.22,494.65,102.56,493.15Z"/><path class="cls-18" d="M205.69,406.62l-.43.29.15-.53A.27.27,0,0,1,205.69,406.62Z"/><path class="cls-14" d="M155.66,218.49c.74-1.77-.6-3.05-1.22-4.39-1.71-3.68-3.61-7.27-4.59-11.25.07.89.31,2.07-1.1.78-1.69-1.55-3.33-3.17-5-4.76-1,.93-1.36,2.16-2.7,3-1.67,1.1-4.05,2.58-3.77,5.42,3.1,1.85,4.28,4.85,3,7.83a2.83,2.83,0,0,0-.2,2.7c1.72,3.19,4.68,5.17,7.32,7.44,1.4,1.19,2.92.11,4.42-.11a2.92,2.92,0,0,1,.78,0c.2-2,1-3,3.13-2a7.84,7.84,0,0,0-.39-2.11A2.84,2.84,0,0,1,155.66,218.49Zm-8.85-11.85c-.07,1.75.45,3.77-2,4.48-2.25-.57-3.42-3.15-3.09-4.26.56-1.89,3.1-1.71,5-1.35C147.51,205.65,147.27,206.23,146.81,206.64Z"/><path class="cls-12" d="M185.81,295c6.61-2.08,13.15-4.33,20-5.31,3.06-.43,4.16,2.2,5.68,3.93,1.14,1.29,3.22,3.13,2.53,4.41-1,1.78-3.31.17-4.89-.19C201.49,296,193.7,295.6,185.81,295Z"/><path class="cls-16" d="M173.6,241.09c-3.19,3.68-4.94,8.17-6.66,12.59-1.49,3.81-2.24,7.91-3.53,11.81-1.11,3.37-.83,7.05-2.49,10.28-.41.8-.79,1.24-1.65,1.05s-.79-1.07-.91-1.79c-.25-1.52,1.08-2.42,1.36-3.8,1.78-8.74,4-17.41,7.91-25.44,1-2.1,2-4.94,4.76-6C172.43,240.58,172.76,241.07,173.6,241.09Z"/><path class="cls-12" d="M168.41,307.16a34,34,0,0,1,.4-13.39c.54.15.8.14.9.26,1,1.15.7,3.26,2.57,3.65.87.18,4.05-5.51,4-7.24-.05-2.19-.3-4.38-.48-6.89,2,1,1.47,3,2.24,4.33-.05.07-.16.17-.14.2a3.26,3.26,0,0,0,.29.36l0-.06c-.11,2.2.79,4.65-.48,6.56C174.87,299.2,172.88,304.14,168.41,307.16Z"/><path class="cls-12" d="M179.48,291c2.07-2.9,2.18-6.53,3.53-9.7,1.2-2.8,7-6.58,9.93-6.15,1.24.18,1.41,1,.71,1.78-4.48,5.16-9,10.26-13.54,15.38A1.12,1.12,0,0,1,179.48,291Z"/><path class="cls-12" d="M194.52,306.91c-.19,1.37-1.09,1.67-2.26,1.06q-5.64-3-11.21-6.08c-1.38-.77-1.18-1.68.11-2.33C185.53,297.39,194.12,302.07,194.52,306.91Z"/><path class="cls-13" d="M173.6,241.09c-.84,0-1.17-.51-1.21-1.29.7-2.52,2.55-4.27,4.14-6.19a1.93,1.93,0,0,0,1.54-1.51c2.56-2.61,5.42-2.64,8.59-1.2a2,2,0,0,1,1.23,1.65c.21,1-.68.89-1.2,1.08a12.17,12.17,0,0,1-3,.91C179.1,234.86,176.44,238.09,173.6,241.09Z"/><path class="cls-6" d="M179.48,291a1.12,1.12,0,0,0,.63,1.31c-.88,2.95-1.25,6.09-4.13,8.12a5.26,5.26,0,0,0-2.22,4l-.87,3c-1.5,1.3-2.75,2.91-4.82,3.9a7.12,7.12,0,0,1,.34-4.07c4.47-3,6.46-8,9.28-12.22,1.27-1.91.37-4.36.48-6.56A4.84,4.84,0,0,1,179.48,291Z"/><path class="cls-12" d="M172.89,307.33l.87-3c2.44-.21,3.77.93,4.76,3.18a77.75,77.75,0,0,1,3.94,10.56C178.88,314.78,177,310.09,172.89,307.33Z"/><path class="cls-12" d="M183.19,227.52c2-.86,4.17-.82,6.24-1.13,3.61-.55,4.69,2.24,6.38,4.26a1.27,1.27,0,0,1-.05,1.75c-.56.53-1.19.2-1.76-.08A90.86,90.86,0,0,0,183.19,227.52Z"/><path class="cls-9" d="M149.85,202.85c.07.89.31,2.07-1.1.78-1.69-1.55-3.33-3.17-5-4.76a10.88,10.88,0,0,1-2.54-8.8C145.26,193.55,146.81,198.7,149.85,202.85Z"/><path class="cls-12" d="M167.11,219.28l.86.82c-2.14,3.83-2.79,8.37-5.72,11.85a10,10,0,0,1-2.58,2.69,21.44,21.44,0,0,0-1.42-8.86c1.44-.65,1.88.72,2.19,1.42,1.25,2.88,2.11,1.37,3-.15a26.55,26.55,0,0,0,2.68-6.66A1.47,1.47,0,0,1,167.11,219.28Z"/><path class="cls-12" d="M174.32,267.09q0-9.09,0-18.17a3.45,3.45,0,0,1,.93-2.63c.58-.57,1.09-1.49,2.11-.95a1.59,1.59,0,0,1,.6,2.24C175.09,253.83,175.52,260.62,174.32,267.09Z"/><path class="cls-6" d="M176.38,333.57c-2.6-3-6.61-4.82-7.79-9.17.92,3.41,1,6.91,2.52,10.06A54.46,54.46,0,0,0,174.65,345c.62-8.66,7-10.66,14.47-12.1C184.26,331.85,180.41,333.93,176.38,333.57Z"/><path class="cls-16" d="M198.6,242.44c.26.79.52,1.59.79,2.39-2.45-.16-2.35-2.63-3.53-3.94-1.7-1.9-3.86-3.41-5.61-6.41a11.76,11.76,0,0,1,6.56,4.85C198,240,197.69,241.58,198.6,242.44Z"/><path class="cls-12" d="M159.49,241.4l.78-.63,5.67-2.71.41.58a45.13,45.13,0,0,1-4,3.94C161,243.6,159.28,244.55,159.49,241.4Z"/><path class="cls-12" d="M184.21,210.56c1,2.21,1.59,4,.08,5.62-.45.48-1.73.93-1.89.2C182,214.36,183.24,212.7,184.21,210.56Z"/><path class="cls-12" d="M159.65,347.94c-5.58,0-11.16-1.06-16.75-.39v.87h16.79c4.7-.25,9.55,1.51,14.11-1C169.09,348.12,164.36,347.78,159.65,347.94Z"/><path class="cls-12" d="M166,294v-.33H151.35V294Z"/><path class="cls-12" d="M155.7,223.21c.06-1.57-1.23-3.14,0-4.72,0,2.08,2.81,3.5,1.43,5.92Z"/><path class="cls-12" d="M170.63,234.53c2.52-.06,4.07-1.41,5.9-.92a1.93,1.93,0,0,0,1.54-1.51A11.49,11.49,0,0,0,170.63,234.53Z"/><path class="cls-12" d="M167.67,237h0a2.74,2.74,0,0,0-1.73,1.1l.41.58a2.78,2.78,0,0,0,1.71-1.23,3.88,3.88,0,0,0,2.47-2.56A4.25,4.25,0,0,0,167.67,237Z"/><path class="cls-12" d="M174.32,207.76c-1.78-.82-3,.7-3.76,2.08-1.67,2.94-3.26,5.94-3.45,9.44l.86.82,1.23-.76a1.16,1.16,0,0,0,.73-1.19l0,0a1.25,1.25,0,0,0,1.26-1.28h0c.82-.06,1.14-.59,1.28-1.31a8.17,8.17,0,0,0,2.42-3.63C175.54,210.46,176.22,208.64,174.32,207.76Z"/><path class="cls-6" d="M185.18,237.29l.27.27s-.13,0-.15-.07a.57.57,0,0,1-.08-.23Z"/><path class="cls-12" d="M199.8,264.66c-.19,3.64,1.27,6.86,2.41,10.19l1-.31Q201.49,269.59,199.8,264.66Z"/><path class="cls-12" d="M195.34,256.48l2.43,5.43A5.47,5.47,0,0,0,195.34,256.48Z"/><path class="cls-12" d="M189.66,243.68l0,0v0Z"/><path class="cls-12" d="M189.69,243.7a3.28,3.28,0,0,0,1.62,3.08C191.15,245.24,190.74,244.31,189.69,243.7Z"/><path class="cls-12" d="M194.49,253c-.52.84-.14,1.36.57,1.82C195.6,254,195.18,253.47,194.49,253Z"/><path class="cls-12" d="M189,243l0,0,0,0Z"/><path class="cls-12" d="M188.48,241.44a.54.54,0,0,0-.43.21,1.41,1.41,0,0,0,1,1.34C189,242.42,189.15,241.78,188.48,241.44Z"/><path class="cls-12" d="M187.1,239.85l0,0-.07-.09A.19.19,0,0,0,187.1,239.85Z"/><path class="cls-12" d="M186.64,239.16l.42.57C187,239.46,187.28,239,186.64,239.16Z"/><path class="cls-12" d="M184.92,237l.23.2a.59.59,0,0,0-.06-.14S185,237,184.92,237Z"/><path class="cls-12" d="M185.18,237.29l0,0-.07-.06Z"/><path class="cls-19" d="M178.21,288.44a3.26,3.26,0,0,1-.29-.36s.09-.13.14-.2A1.09,1.09,0,0,1,178.21,288.44Z"/><path class="cls-20" d="M187.1,239.85l.28.25s-.12,0-.15-.06a.88.88,0,0,1-.1-.22Z"/><path class="cls-20" d="M189,243l.65.64,0,0-.64-.65Z"/><path class="cls-15" d="M144.83,211.12c-2.25-.57-3.42-3.15-3.09-4.26.56-1.89,3.1-1.71,5-1.35.76.14.52.72.06,1.13a8.16,8.16,0,0,0-3.52.39C143.81,208.4,144.32,209.76,144.83,211.12Z"/><path class="cls-2" d="M144.83,211.12c-.51-1.36-1-2.72-1.54-4.09a8.16,8.16,0,0,1,3.52-.39C146.74,208.39,147.26,210.41,144.83,211.12Z"/><path class="cls-9" d="M159,231c0-2.37-1-9.26-4-10s-3.95,8.33-4,8.7Z"/><path class="cls-1" d="M103,499c3.48-.14,5.89-6.46,8-12,2-5.18,3-7.77,2-10-2.27-5.27-12.36-5.74-18-6-12.41-.57-15.57,3.24-21,0-4.34-2.59-7-7.84-10-7a6.54,6.54,0,0,0-3,2,6.08,6.08,0,0,0-1,2c-.73,2.92,4.74,7.27,7,9,5.41,4.14,9.27,7.11,16,10,6.94,3,8.23,2.15,12,5C99.88,495.68,100.41,499.1,103,499Z"/><path class="cls-21" d="M372.16,498.38c1.17,3,64.72-7.64,68.39-32.86,1.43-9.78-6.22-21.19-12.43-21.32-7.62-.16,0,19.91-16.18,36.9C396.53,497.25,371.57,496.84,372.16,498.38Z"/><path class="cls-21" d="M264.43,498.66c0,1,85.35,7.16,90.66-13,1-3.79-.44-10-3.77-11.44-4.79-2.12-12.42,6-16.05,9.39C310.7,506.25,264.41,497.89,264.43,498.66Z"/><path class="cls-21" d="M323.28,484.86c-.6-.56,19.12-13.9,21.35-36.32.93-9.26-1.36-17.87,1.28-18.79,2.22-.78,7.06,4.2,8.7,9.32C360.75,458.22,324.12,485.63,323.28,484.86Z"/><path class="cls-21" d="M263.29,495.94c0,.42,24,4.47,29.77-5.33,2.06-3.54,1.51-8.47,0-9.09-2.08-.84-4.69,6.77-12.62,11.32C271.92,497.73,263.28,495.69,263.29,495.94Z"/><path class="cls-22" d="M401,499.32c0,.86,16.23,4,18.66-.85.71-1.42.26-3.57-.85-4.24-1.59-1-3.77,1.59-8.48,3.4C404.87,499.72,401,498.9,401,499.32Z"/><path class="cls-22" d="M303.09,481.09c-2.59.51-4.56,3.77-3.74,5.23.56,1,2.44,1.18,3.74.75,2.39-.77,3.88-3.88,3-5.24C305.51,481,304,480.91,303.09,481.09Z"/><path class="cls-22" d="M437.34,498.36c2.57-.26,4.48-1.52,3.65-2.05a7.67,7.67,0,0,0-3.7-.18c-2.36.35-3.8,1.54-2.91,2A6.87,6.87,0,0,0,437.34,498.36Z"/><path class="cls-3" d="M400.56,186.17H333.7l-47.23,48.22V347.24h49.72L366,316.66l31.32,30.58h50.21V234.39ZM367.5,269.83,344.17,246.5l23.33-23.33,23.33,23.33Z"/><path class="cls-3" d="M536,316.66v30.58H456.49V186.42h47.22L537,217.49V186.17h80.53V347.24H567.34Z"/><path class="cls-3" d="M707.28,347.24H626.5V186.17h80.78Z"/><path class="cls-1" d="M757.55,374.34,694.7,311.5l64.16-64.16,62.84,62.85Z"/><path class="cls-3" d="M804.46,347.24V186.17H930.23l35.3,50L934.21,267.2,965.53,299v48.22H915.32l-33.56-32.32v32.32Z"/><path class="cls-3" d="M974.47,219l33.06-32.81h76.56L1117.15,219V347.24H974.47Z"/><path class="cls-3" d="M1166.36,275.4h-40.27V186.17h161.07v89.48h-40v71.59h-80.78Z"/><path class="cls-3" d="M1438.53,266.21,1406,297.52h32.56v49.72H1329.16l-33.06-33.06V219l33.06-32.81h76.56L1438.53,219Z"/><rect class="cls-3" x="650" y="127" width="33" height="33" transform="translate(296.68 -429.26) rotate(45)"/></svg>